<svg width="64" height="64" viewBox="0 0 64 64" fill="none" xmlns="http://www.w3.org/2000/svg">
<rect width="64" height="64" fill="#1F2020"/>
<path d="M41.946 52.2909C41.3612 51.7082 41.0709 50.9916 41.0709 50.1473C41.0709 49.3031 41.3633 48.5865 41.946 48.0038C42.5287 47.4211 43.2453 47.1287 44.0896 47.1287C43.2433 47.1287 42.5287 46.8363 41.946 46.2535C41.3612 45.6708 41.0709 44.9542 41.0709 44.11C41.0709 43.2657 41.3633 42.5492 41.946 41.9664C42.5287 41.3837 43.2453 41.0913 44.0896 41.0913C43.2433 41.0913 42.5287 40.7989 41.946 40.2162C41.3612 39.6334 41.0709 38.9168 41.0709 38.0726C41.0709 38.9189 40.7785 39.6334 40.1957 40.2162C39.613 40.7989 38.8964 41.0913 38.0522 41.0913C37.2079 41.0913 36.4914 40.7989 35.9086 40.2162C35.3238 39.6334 35.0335 38.9168 35.0335 38.0726C35.0335 38.9189 34.7411 39.6334 34.1584 40.2162C33.5736 40.8009 32.8591 41.0913 32.0148 41.0913C31.1706 41.0913 30.454 40.7989 29.8713 40.2162C29.2865 39.6334 28.9961 38.9168 28.9961 38.0726C28.9961 38.9189 28.7037 39.6334 28.121 40.2162C27.5383 40.7989 26.8217 41.0913 25.9774 41.0913C25.1332 41.0913 24.4166 40.7989 23.8339 40.2162C23.2491 39.6334 22.9588 38.9168 22.9588 38.0726C22.9588 38.9189 22.6664 39.6334 22.0836 40.2162C21.4988 40.8009 20.7843 41.0913 19.9401 41.0913C20.7864 41.0913 21.5009 41.3837 22.0836 41.9664C22.6664 42.5512 22.9588 43.2657 22.9588 44.11C22.9588 44.9542 22.6664 45.6708 22.0836 46.2535C21.4988 46.8383 20.7843 47.1287 19.9401 47.1287C20.7864 47.1287 21.5009 47.4211 22.0836 48.0038C22.6664 48.5886 22.9588 49.3031 22.9588 50.1473C22.9588 50.9916 22.6664 51.7082 22.0836 52.2909C21.4988 52.8757 20.7843 53.166 19.9401 53.166C19.0958 53.166 18.3793 52.8736 17.7965 52.2909C17.2117 51.7082 16.9214 50.9916 16.9214 50.1473C16.9214 49.3031 17.2138 48.5865 17.7965 48.0038C18.3793 47.4211 19.0958 47.1287 19.9401 47.1287C19.0938 47.1287 18.3793 46.8363 17.7965 46.2535C17.2117 45.6708 16.9214 44.9542 16.9214 44.11C16.9214 43.2657 17.2138 42.5492 17.7965 41.9664C18.3793 41.3837 19.0958 41.0913 19.9401 41.0913C19.0938 41.0913 18.3793 40.7989 17.7965 40.2162C17.2117 39.6334 16.9214 38.9168 16.9214 38.0726C16.9214 37.2284 17.2138 36.5118 17.7965 35.929C18.3793 35.3463 19.0958 35.0539 19.9401 35.0539C19.0938 35.0539 18.3793 34.7615 17.7965 34.1788C17.2117 33.596 16.9214 32.8795 16.9214 32.0352C16.9214 31.191 17.2138 30.4744 17.7965 29.8917C18.3793 29.3089 19.0958 29.0165 19.9401 29.0165C19.0938 29.0165 18.3793 28.7241 17.7965 28.1414C17.2117 27.5587 16.9214 26.8421 16.9214 25.9979C16.9214 25.1536 17.2138 24.437 17.7965 23.8543C18.3793 23.2716 19.0958 22.9792 19.9401 22.9792C20.7843 22.9792 21.5009 23.2716 22.0836 23.8543C22.6664 24.4391 22.9588 25.1536 22.9588 25.9979C22.9588 26.8421 22.6664 27.5587 22.0836 28.1414C21.4988 28.7262 20.7843 29.0165 19.9401 29.0165C20.7864 29.0165 21.5009 29.3089 22.0836 29.8917C22.6664 30.4765 22.9588 31.191 22.9588 32.0352C22.9588 32.8795 22.6664 33.596 22.0836 34.1788C21.4988 34.7636 20.7843 35.0539 19.9401 35.0539C20.7864 35.0539 21.5009 35.3463 22.0836 35.929C22.6664 36.5138 22.9588 37.2284 22.9588 38.0726C22.9588 37.2263 23.2512 36.5118 23.8339 35.929C24.4166 35.3463 25.1332 35.0539 25.9774 35.0539C26.8217 35.0539 27.5383 35.3463 28.121 35.929C28.7037 36.5138 28.9961 37.2284 28.9961 38.0726C28.9961 37.2263 29.2885 36.5118 29.8713 35.929C30.454 35.3463 31.1706 35.0539 32.0148 35.0539C32.8591 35.0539 33.5756 35.3463 34.1584 35.929C34.7411 36.5138 35.0335 37.2284 35.0335 38.0726C35.0335 37.2263 35.3259 36.5118 35.9086 35.929C36.4914 35.3463 37.2079 35.0539 38.0522 35.0539C38.8964 35.0539 39.613 35.3463 40.1957 35.929C40.7785 36.5138 41.0709 37.2284 41.0709 38.0726C41.0709 37.2263 41.3633 36.5118 41.946 35.929C42.5287 35.3463 43.2453 35.0539 44.0896 35.0539C43.2433 35.0539 42.5287 34.7615 41.946 34.1788C41.3612 33.596 41.0709 32.8795 41.0709 32.0352C41.0709 31.191 41.3633 30.4744 41.946 29.8917C42.5287 29.3089 43.2453 29.0165 44.0896 29.0165C43.2433 29.0165 42.5287 28.7241 41.946 28.1414C41.3612 27.5587 41.0709 26.8421 41.0709 25.9979C41.0709 25.1536 41.3633 24.437 41.946 23.8543C42.5287 23.2716 43.2453 22.9792 44.0896 22.9792C44.9338 22.9792 45.6504 23.2716 46.2331 23.8543C46.8158 24.4391 47.1082 25.1536 47.1082 25.9979C47.1082 26.8421 46.8158 27.5587 46.2331 28.1414C45.6483 28.7262 44.9338 29.0165 44.0896 29.0165C44.9359 29.0165 45.6504 29.3089 46.2331 29.8917C46.8158 30.4765 47.1082 31.191 47.1082 32.0352C47.1082 32.8795 46.8158 33.596 46.2331 34.1788C45.6483 34.7636 44.9338 35.0539 44.0896 35.0539C44.9359 35.0539 45.6504 35.3463 46.2331 35.929C46.8158 36.5138 47.1082 37.2284 47.1082 38.0726C47.1082 38.9168 46.8158 39.6334 46.2331 40.2162C45.6483 40.8009 44.9338 41.0913 44.0896 41.0913C44.9359 41.0913 45.6504 41.3837 46.2331 41.9664C46.8158 42.5512 47.1082 43.2657 47.1082 44.11C47.1082 44.9542 46.8158 45.6708 46.2331 46.2535C45.6483 46.8383 44.9338 47.1287 44.0896 47.1287C44.9359 47.1287 45.6504 47.4211 46.2331 48.0038C46.8158 48.5886 47.1082 49.3031 47.1082 50.1473C47.1082 50.9916 46.8158 51.7082 46.2331 52.2909C45.6483 52.8757 44.9338 53.166 44.0896 53.166C43.2453 53.166 42.5287 52.8736 41.946 52.2909ZM23.8257 22.0917C23.2409 21.509 22.9505 20.7924 22.9505 19.9481C22.9505 19.1039 23.2429 18.3873 23.8257 17.8046C24.4084 17.2218 25.125 16.9294 25.9692 16.9294C26.8135 16.9294 27.53 17.2218 28.1128 17.8046C28.6955 18.3894 28.9879 19.1039 28.9879 19.9481C28.9879 20.7924 28.6955 21.509 28.1128 22.0917C27.53 22.6744 26.8135 22.9668 25.9692 22.9668C25.125 22.9668 24.4084 22.6744 23.8257 22.0917ZM29.8671 16.0523C29.2823 15.4695 28.992 14.7529 28.992 13.9087C28.992 13.0645 29.2844 12.3479 29.8671 11.7651C30.4499 11.1824 31.1665 10.89 32.0107 10.89C32.8549 10.89 33.5715 11.1824 34.1543 11.7651C34.737 12.3499 35.0294 13.0645 35.0294 13.9087C35.0294 14.7529 34.737 15.4695 34.1543 16.0523C33.5695 16.637 32.8549 16.9274 32.0107 16.9274C31.1665 16.9274 30.4499 16.635 29.8671 16.0523ZM35.9066 22.0917C35.3218 21.509 35.0314 20.7924 35.0314 19.9481C35.0314 19.1039 35.3238 18.3873 35.9066 17.8046C36.4893 17.2218 37.2059 16.9294 38.0501 16.9294C38.8944 16.9294 39.611 17.2218 40.1937 17.8046C40.7764 18.3894 41.0688 19.1039 41.0688 19.9481C41.0688 20.7924 40.7764 21.509 40.1937 22.0917C39.611 22.6744 38.8944 22.9668 38.0501 22.9668C37.2059 22.9668 36.4893 22.6744 35.9066 22.0917Z" fill="#E2E6E7"/>
</svg>
